<svg xmlns="http://www.w3.org/2000/svg" width="809" height="459" viewBox="268.689 231.516 333.796 245.084"><path opacity=".1" d="M532.58 457.408A131.945 19.192 0 0 1 400.634 476.6a131.945 19.192 0 0 1-131.945-19.192 131.945 19.192 0 0 1 263.891 0"/><linearGradient gradientTransform="matrix(7.8769 0 0 -7.8769 364.352 4969.315)" y2="546.145" x2="-40.979" y1="631.81" x1="13.979" gradientUnits="userSpaceOnUse" id="a" xmlns="http://www.w3.org/2000/svg"><stop style="stop-color:#29d3da" offset="0"/><stop style="stop-color:#07f" offset=".519"/><stop style="stop-color:#064093" offset=".999"/><stop style="stop-color:#084698" offset="1"/></linearGradient><path d="M602.484 408.1c0 38.974-54.325 26.918-120.841 26.918S361.61 447.074 361.61 408.1s54.317-47.451 120.834-47.451 120.041 8.477 120.041 47.451" style="fill:url(#a)"/><path d="m591.389 328.537 2.746 11.327a.7.7 0 0 1-.013.382l-12.456 38.922a.707.707 0 0 1-1.376-.136l-1.723-15.163a.7.7 0 0 1 .031-.299l11.433-35.087a.707.707 0 0 1 1.36.053" fill="#2f2e41"/><path fill="#f2f2f2" d="m590.378 329.495 2.536 9.717-10.986 35.491-2.535-10.985z"/><path d="M535.03 382.308c.422 1.267 43.941-.423 44.364-.846a9.2 9.2 0 0 0 .93-1.69c.396-.845.76-1.69.76-1.69l-1.69-13.681-43.096-1.529s-1.077 11.594-1.297 16.9a13 13 0 0 0 .03 2.535" fill="#2f2e41"/><path opacity=".1" d="m573.901 366.253.845 11.83h-19.013v-11.83zm-24.506 3.802.114-.023-.535 5.092h-10.563v-5.07zm-14.365 12.253c.422 1.267 43.941-.423 44.364-.846a9.2 9.2 0 0 0 .93-1.69h-45.323a13 13 0 0 0 .03 2.535"/><path d="M467.85 337.944h11.83l29.154-11.407s20.703-8.451 19.013 7.605-4.648 37.604-4.648 37.604-9.296-4.225-14.365-2.958-1.69-25.774-1.69-25.774-41.405 19.858-45.208 17.324-4.647-20.28-4.647-20.28Z" fill="#2f2e41"/><path d="M467.85 337.944h11.83l29.154-11.407s20.703-8.451 19.013 7.605-4.648 37.604-4.648 37.604-9.296-4.225-14.365-2.958-1.69-25.774-1.69-25.774-41.405 19.858-45.208 17.324-4.647-20.28-4.647-20.28Z" opacity=".1"/><path d="m486.49 300.896 14.317 20.57 33.378 27.887s30.843 7.183 26.618 12.252-29.999-5.07-29.999-5.07-38.448-27.887-39.716-29.998-15.21-21.971-15.21-21.971Z" fill="#ffb9b9"/><path d="m486.49 300.896 14.317 20.57 33.378 27.887s30.843 7.183 26.618 12.252-29.999-5.07-29.999-5.07-38.448-27.887-39.716-29.998-15.21-21.971-15.21-21.971Z" opacity=".1"/><path fill="#ffb9b9" d="M503.341 259.357a19.01 19.01 0 0 1-19.013 19.013 19.01 19.01 0 0 1-19.013-19.013 19.013 19.013 0 0 1 38.026 0"/><path d="M483.061 276.258s-6.337 10.986-7.605 16.901-19.013-11.83-19.013-11.83l-2.324-6.127s16.689-7.816 15.422-14.154 13.52 15.211 13.52 15.211" fill="#ffb9b9"/><path d="m477.992 284.285 9.296 18.168s-2.113 8.873-5.493 9.717-17.744-10.986-17.744-10.986Z" fill="#d0cde1"/><path d="m486.441 309.213 17.324 22.815 41.405 30.843s29.999 6.337 23.239 10.985-26.195-4.225-26.195-4.225-41.828-22.393-50.702-31.689-25.351-24.928-25.351-24.928Z" fill="#ffb9b9"/><path d="m463.204 344.704 5.07 8.028 30.26-9.52a23.8 23.8 0 0 1 19.808 2.39c5.281 3.326 8.661 8.609 1.055 16.425-15.21 15.632-25.35 7.182-25.35 7.182s-51.124 24.083-59.574 12.253-8.873-17.745-8.873-17.745 32.533-20.28 37.604-19.013" fill="#2f2e41"/><path d="M526.58 372.59s13.52 8.873-2.535 13.099-27.887-1.69-27.887-1.69-13.943 0-13.943-7.183 4.648-8.028 4.648-8.028l14.365 2.113s17.324-4.648 25.351 1.69" fill="#d0cde1"/><path d="M499.926 254.574a14.1 14.1 0 0 0 3.984 1.427 3.63 3.63 0 0 0 3.675-1.576 4.96 4.96 0 0 0 .418-2.234c.05-2.321-.118-4.828-1.588-6.624-.936-1.144-2.301-1.863-3.271-2.978a14 14 0 0 1-1.653-2.702c-1.884-3.538-4.672-6.938-8.548-7.957a18.5 18.5 0 0 0-4.99-.382l-9.76.137a17 17 0 0 0-4.696.506c-3.143.95-5.43 3.592-7.524 6.118a38.4 38.4 0 0 0-4.315 5.956 20.9 20.9 0 0 0-2.477 10.239 9.6 9.6 0 0 0 .352 2.709 15.4 15.4 0 0 0 1.064 2.339c1.831 3.595 2.918 8.086.857 11.555 3.581-1.463 7.124-3.381 9.487-6.444 1.058-1.371 1.886-2.975 3.294-3.98s3.703-1.093 4.606.383a4.1 4.1 0 0 1 .466 1.934 8.9 8.9 0 0 0 .534 3.264 2.45 2.45 0 0 0 2.657 1.516c1.84-.518 1.664-3.341 3.08-4.623 1.076-.974 2.736-.788 4.118-1.23a6.1 6.1 0 0 0 3.508-3.455c.524-1.174.516-4.246 1.507-4.882 1.242-.797 4.066.47 5.218.984" fill="#2f2e41"/><path d="M452.61 273.197a5 5 0 0 1 2.611.006c2.713.729 8.793 2.656 10.096 5.59 1.69 3.802 7.605 9.717 7.605 9.717s8.029 8.027 6.338 13.52-8.028 11.83-8.028 11.83 1.69 26.195-6.76 32.956-11.83 2.113-11.83 8.45-26.195 26.195-31.266 13.943c0 0 2.535-22.816 1.69-30.843-.833-7.911.386-57.276 29.545-65.17" fill="#d0cde1"/><path d="M466.161 283.864s25.774 19.013 21.126 27.04c0 0-15.633 7.605-19.013 7.183s-16.478-15.21-19.858-16.477-5.07-24.083 17.745-17.745" fill="#d0cde1"/><path d="M394.885 300.901c-4.008 1.353-7.639 4.521-8.46 8.671-.381 1.924-.147 3.924-.467 5.859-.743 4.487-4.266 7.915-7.514 11.098s-6.604 6.882-6.842 11.424c-.259 4.974 3.349 9.633 2.724 14.575-.725 5.742-6.789 9.461-8.288 15.05-1 3.733.225 7.753 2.244 11.047 3.845 6.28 10.419 10.542 17.417 12.827s14.455 2.767 21.818 2.844c8.964.093 18.699-.676 25.435-6.593a20.37 20.37 0 0 0 6.765-13.265c.64-6.854-2.22-13.936-.248-20.531 1.242-4.15 4.356-7.941 3.891-12.248-.455-4.211-4.133-7.196-6.655-10.598-2.356-3.177-3.786-6.928-5.186-10.626l-4.794-12.654c-.942-2.487-1.977-5.103-4.077-6.736-3.932-3.056-10.254-2.455-14.851-1.825-4.265.586-8.806.296-12.907 1.681" fill="#2f2e41"/><path d="M396.386 337.761s2.125 6.907-13.813 14.876 1.595 16.469 1.595 16.469l18.594 4.251s19.126-2.657 21.251-5.843 5.843-13.813 4.782-15.407a24.6 24.6 0 0 0-2.657-3.188s-12.751-2.125-12.219-7.97-17.533-3.188-17.533-3.188" fill="#ffb9b9"/><path d="M396.386 337.761s2.125 6.907-13.813 14.876 1.595 16.469 1.595 16.469l18.594 4.251s19.126-2.657 21.251-5.843 5.843-13.813 4.782-15.407a24.6 24.6 0 0 0-2.657-3.188s-12.751-2.125-12.219-7.97-17.533-3.188-17.533-3.188" opacity=".1"/><path fill="#ffb9b9" d="M423.747 331.652a17 17 0 0 1-17.001 17.001 17 17 0 0 1-17-17.001 17.001 17.001 0 0 1 34.001 0"/><path d="M404.887 367.512s-20.475-1.497-20.864-15.624c0 0-7.294-.846-9.42 1.28s-9.03 3.719-9.03 9.032 11.688 21.251 11.688 21.251 6.375 21.251 3.718 24.97-3.188 13.283-3.188 13.283 26.564-2.125 30.814 0 21.251 2.124 22.313 0-1.063-28.689-1.063-28.689 4.782-6.376 3.719-13.813l12.751-14.876s-4.782-14.345-12.219-14.345c0 0-10.095-2.657-10.36-1.328s5.047 16.204-18.86 18.86" fill="#DA498C"/><path d="M357.072 414.265s4.781 7.438 17.001 9.032 14.345-2.657 13.282-3.718-13.813-5.845-13.813-5.845l-7.437-5.843Zm87.129-6.375-13.812 7.97s-18.064-1.064-11.157 4.251 19.658 3.188 19.658 3.188l12.219-5.843Z" fill="#ffb9b9"/><path d="M375.135 421.703s-12.751 31.345 2.657 36.127 57.909 3.718 67.472-2.657 12.219-14.876 10.626-17.531-12.219-10.094-19.658-10.626-61.098-5.312-61.098-5.312" fill="#2f2e41"/><path d="M375.135 421.703s-12.751 31.345 2.657 36.127 57.909 3.718 67.472-2.657 12.219-14.876 10.626-17.531-12.219-10.094-19.658-10.626-61.098-5.312-61.098-5.312" opacity=".05"/><path d="M435.322 423.651s45.005-16.292 44.474 3.365-28.689 24.971-28.689 24.971l-8.5 1.062-46.752 1.595s1.594-8.5-2.125-9.564c0 0 12.219-3.187 12.751-3.718s30.814-11.157 32.939-11.688 8.5-4.782 13.283-4.251c0 0 5.312-4.251 11.157-3.188l-16.469 1.063Z" fill="#2f2e41"/><path d="M435.322 423.651s45.005-16.292 44.474 3.365-28.689 24.971-28.689 24.971l-8.5 1.062-46.752 1.595s1.594-8.5-2.125-9.564c0 0 12.219-3.187 12.751-3.718s30.814-11.157 32.939-11.688 8.5-4.782 13.283-4.251c0 0 5.312-4.251 11.157-3.188l-16.469 1.063Z" opacity=".1"/><path fill="#2f2e41" d="m427.371 426.289 5.675 12.946 34.533-12.219 2.657-6.906-9.032-1.595-18.157 3.188-7.877 2.124z"/><path opacity=".1" d="m427.371 426.289 5.675 12.946 34.533-12.219 2.657-6.906-9.032-1.595-18.157 3.188-7.877 2.124z"/><path d="M353.884 441.892s10.094 12.751 21.783 15.938 18.063-1.062 18.063-1.062l-3.718-14.876-1.594-9.564-6.907-4.782-13.813-6.375-16.469-5.312s-6.907-1.064-6.907 0 6.375 17.001 6.375 17.001Z" fill="#2f2e41"/><path d="M366.103 448.799s2.124 15.406 4.782 16.469 10.625-1.063 12.75-2.124 9.348-5.965 9.348-5.965-25.285-9.442-26.88-8.379" fill="#f2f2f2"/><path fill="#ffb9b9" d="m414.45 450.392 10.094 1.594-1.063 12.219-14.079-3.419z"/><path d="M420.775 453.792s-4.731 5.632.05 8.818l3.188 2.657s10.626 2.124 11.688 3.188 5.313-1.594 5.313-1.594.531-15.939 0-17.001-6.907-2.124-7.437-1.062-6.907 2.656-10.625 1.594Z" fill="#f2f2f2"/><path d="M378.324 425.422s-37.189-21.782-43.034-13.812-12.219 19.125 4.782 27.627 70.129 26.033 70.129 26.033 7.969-12.219 7.969-15.407c0 0-28.157-12.751-32.939-13.812s-23.907-13.283-26.565-14.345-6.375-4.251-6.375-4.251Z" fill="#2f2e41"/><path d="m367.697 359.543-2.124 1.594s-4.782 12.219-5.313 19.126-6.907 28.157-6.376 30.813 1.064 4.782 4.251 7.437c0 0 4.251-9.563 11.689-7.969l9.031-32.939Zm74.379 0 4.251 4.782s2.657 6.375 2.657 7.969 5.312 24.971 5.843 26.033 2.657 14.345 0 17.533-7.437 5.312-7.437 5.312 3.188-11.157-6.907-11.688l1.063-4.251-9.564-31.876Z" fill="#DA498C"/><path d="M368.76 396.121v27.985a6.726 6.726 0 0 0 6.63 6.728l58.524.867a6.726 6.726 0 0 0 6.823-6.469l1.076-27.987a6.726 6.726 0 0 0-6.626-6.986l-59.6-.864a6.726 6.726 0 0 0-6.826 6.727" fill="#cad5e2"/><path fill="#2f2e41" d="M426.043 321.252a18.299 9.853 0 0 1-18.299 9.853 18.299 9.853 0 0 1-18.3-9.853 18.299 9.853 0 0 1 36.6 0"/><path fill="#f2f2f2" d="M408.872 410.812a4.25 4.25 0 0 1-4.251 4.25 4.25 4.25 0 0 1-4.251-4.25 4.251 4.251 0 0 1 8.501 0"/></svg>